# xmcd CD database file
#
# Track frame offsets:
#	150
#	19258
#	38259
#	55717
#	72333
#	90212
#	108791
#	127726
#	144601
#	163913
#	180532
#
# Disc length: 2608 seconds
#
# Revision: 0
# Processed by: cddbd v1.5.1PL0 Copyright (c) Steve Scherf et al.
# Submitted via: CDex 1.51
#
DISCID=800a2e0b
DTITLE=Delta Moon - Howlin'
DYEAR=2005
DGENRE=Blues
TTITLE0=You Don't Have To Go
TTITLE1=Higher Ground
TTITLE2=Must Be Lonely
TTITLE3=Midnight Train
TTITLE4=Put Your Arms Around Me
TTITLE5=Low Country Boil
TTITLE6=Officer
TTITLE7=Blue Highway
TTITLE8=Tiltawhirl
TTITLE9=Let Tomorrow Be
TTITLE10=Lovin' in the Moonlight
EXTD=YEAR: 2005
EXTT0=
EXTT1=
EXTT2=
EXTT3=
EXTT4=
EXTT5=
EXTT6=
EXTT7=
EXTT8=
EXTT9=
EXTT10=
PLAYORDER=
